<svg xmlns="http://www.w3.org/2000/svg" viewBox="929.266 1400 96.665 98">
  <defs>
    <style>
      .cls-1 {
        fill: #b6eaff;
        stroke: #110b76;
      }
    </style>
  </defs>
  <g id="Group_8" data-name="Group 8" transform="translate(-25.276 -4.967)">
    <g id="map_1_" data-name="map (1)" transform="translate(955.276 1405.467)">
      <g id="Group_4" data-name="Group 4" transform="translate(0)">
        <g id="Group_3" data-name="Group 3" transform="translate(0)">
          <circle id="Ellipse_14" data-name="Ellipse 14" class="cls-1" cx="5.187" cy="5.187" r="5.187" transform="translate(42.412 17.769)"/>
          <path id="Path_440" data-name="Path 440" class="cls-1" d="M54.261,71.066a1.034,1.034,0,0,0,.864-.427c8.139-11.969,23.34-38.323,23.34-47.954C78.465,10.177,67.607,0,54.261,0s-24.2,10.177-24.2,22.685c0,9.631,15.2,35.986,23.34,47.954A1.034,1.034,0,0,0,54.261,71.066ZM38.7,22.955a15.56,15.56,0,1,1,15.56,15.56A15.56,15.56,0,0,1,38.7,22.955Z" transform="translate(-6.662)"/>
          <path id="Path_441" data-name="Path 441" class="cls-1" d="M69.233,25.528a12.1,12.1,0,1,0-12.1,12.1A12.1,12.1,0,0,0,69.233,25.528Zm-20.747,0a8.644,8.644,0,1,1,8.644,8.644A8.644,8.644,0,0,1,48.486,25.528Z" transform="translate(-9.532 -2.573)"/>
          <path id="Path_442" data-name="Path 442" class="cls-1" d="M75.63,54.792a1.72,1.72,0,0,0-1.609-1.1H69.39a279.31,279.31,0,0,1-16.952,29.18,4.545,4.545,0,0,1-7.449,0A279.3,279.3,0,0,1,28.037,53.7H23.406a1.72,1.72,0,0,0-1.609,1.1l-20.681,52.5h95.2ZM17.594,86.545H15.865a1.729,1.729,0,1,1,0-3.458h1.729a1.729,1.729,0,1,1,0,3.458Zm7.542,0h-.584a1.729,1.729,0,1,1,0-3.458h.586A6.419,6.419,0,0,1,28.8,84.223a1.729,1.729,0,1,1-1.962,2.847A2.987,2.987,0,0,0,25.136,86.545ZM31.5,96.4a1.73,1.73,0,0,1-2.421-.344,6.514,6.514,0,0,1-1.3-3.878c0-.174.007-.347.02-.522a1.729,1.729,0,1,1,3.448.27c-.007.084-.01.167-.01.25a3.033,3.033,0,0,0,.609,1.8A1.729,1.729,0,0,1,31.5,96.4Zm8.663,2.243H36.731a1.729,1.729,0,0,1,0-3.458h3.436a1.729,1.729,0,1,1,0,3.458Zm10.308,0H47.039a1.729,1.729,0,1,1,0-3.458h3.436a1.729,1.729,0,0,1,0,3.458Zm10.308,0H57.346a1.729,1.729,0,0,1,0-3.458h3.437a1.729,1.729,0,0,1,0,3.458Zm7.631-2.681h0a1.728,1.728,0,1,1-2.8-2.026,2.993,2.993,0,0,0,.575-1.76,2.909,2.909,0,0,0-.015-.3,1.729,1.729,0,0,1,3.441-.35A6.446,6.446,0,0,1,68.414,95.966Zm4.548-9.421H72.3a3,3,0,0,0-1.66.495,1.729,1.729,0,1,1-1.91-2.882,6.437,6.437,0,0,1,3.57-1.07h.666a1.729,1.729,0,0,1,0,3.458Zm8.6,0H79.834a1.729,1.729,0,1,1,0-3.458h1.729a1.729,1.729,0,0,1,0,3.458Z" transform="translate(-1.115 -10.292)"/>
        </g>
      </g>
    </g>
  </g>
</svg>
