<svg xmlns="http://www.w3.org/2000/svg" viewBox="1415.221 1391.709 92.058 106.583">
  <defs>
    <style>
      .cls-1 {
        fill: #b6eaff;
        stroke: #110b76;
      }
    </style>
  </defs>
  <g id="Group_9" data-name="Group 9" transform="translate(-78.146 -11.962)">
    <g id="panels" transform="translate(1494.146 1404.171)">
      <g id="Group_2" data-name="Group 2" transform="translate(0)">
        <g id="Group_1" data-name="Group 1">
          <path id="Path_433" data-name="Path 433" class="cls-1" d="M30.214,106.113H82.629a9.443,9.443,0,0,0-9.238-7.542H39.453A9.443,9.443,0,0,0,30.214,106.113Z" transform="translate(-11.172 -11.843)"/>
          <path id="Path_434" data-name="Path 434" class="cls-1" d="M59.228,11.312a5.656,5.656,0,1,0-5.656-5.656A5.656,5.656,0,0,0,59.228,11.312Z" transform="translate(-13.978)"/>
          <path id="Path_435" data-name="Path 435" class="cls-1" d="M59.743,17.117a10.316,10.316,0,0,1-1.885-.188V84.992h3.771V16.929A10.334,10.334,0,0,1,59.743,17.117Z" transform="translate(-14.493 -2.034)"/>
          <path id="Path_436" data-name="Path 436" class="cls-1" d="M48.165,54.643H16.6a.381.381,0,0,0-.207.057L8.571,61.3,16.4,67.784a.379.379,0,0,0,.207.057H48.165v-13.2ZM31.2,63.127H18a1.885,1.885,0,1,1,0-3.771H31.2a1.885,1.885,0,1,1,0,3.771Zm11.312,0H38.738a1.885,1.885,0,1,1,0-3.771h3.771a1.885,1.885,0,1,1,0,3.771Z" transform="translate(-8.571 -6.565)"/>
          <path id="Path_437" data-name="Path 437" class="cls-1" d="M16.6,35.7H48.165V22.5H16.6a.381.381,0,0,0-.207.057l-7.824,6.6L16.4,35.641A.38.38,0,0,0,16.6,35.7Zm22.135-8.484h3.771a1.885,1.885,0,1,1,0,3.771H38.738a1.885,1.885,0,0,1,0-3.771ZM18,27.213H31.2a1.885,1.885,0,1,1,0,3.771H18a1.885,1.885,0,0,1,0-3.771Z" transform="translate(-8.571 -2.703)"/>
          <path id="Path_438" data-name="Path 438" class="cls-1" d="M98.2,39.7a.381.381,0,0,0-.207-.057H66.429v13.2H97.99a.381.381,0,0,0,.207-.057l7.824-6.6ZM75.856,48.127H72.085a1.885,1.885,0,0,1,0-3.771h3.771a1.885,1.885,0,0,1,0,3.771Zm20.739,0H83.4a1.885,1.885,0,0,1,0-3.771h13.2a1.885,1.885,0,0,1,0,3.771Z" transform="translate(-15.523 -4.763)"/>
          <path id="Path_439" data-name="Path 439" class="cls-1" d="M87.16,111.429h-64.1a3.782,3.782,0,0,0-3.771,3.771v3.771H90.931V115.2A3.782,3.782,0,0,0,87.16,111.429Z" transform="translate(-9.859 -13.388)"/>
        </g>
      </g>
    </g>
  </g>
</svg>
