<svg xmlns="http://www.w3.org/2000/svg" viewBox="426.5 1403.269 112.729 100.758">
  <defs>
    <style>
      .cls-1 {
        fill: #b6eaff;
        stroke: #110b76;
      }
    </style>
  </defs>
  <g id="Group_7" data-name="Group 7" transform="translate(27 4.341)">
    <g id="mountains" transform="translate(400 1399.428)">
      <g id="Group_6" data-name="Group 6" transform="translate(0 0)">
        <g id="Group_5" data-name="Group 5">
          <path id="Path_443" data-name="Path 443" class="cls-1" d="M26.818,75.9,23.4,69.077l-2.259,4.517,2.811,4.216Z" transform="translate(-1.457 -10.746)"/>
          <path id="Path_444" data-name="Path 444" class="cls-1" d="M66.226,47.649,64.02,52.061a2,2,0,0,1-1.465,1.077,2.062,2.062,0,0,1-.319.025,1.994,1.994,0,0,1-1.411-.585L58.245,50l-2.58,2.58a1.995,1.995,0,0,1-3.2-.518l-2.206-4.412L34.539,79.1,49.5,109.027H66.987L81.95,79.1ZM52.087,61.954,44.107,79.911a1.995,1.995,0,0,1-3.645-1.621l7.981-17.956a1.995,1.995,0,0,1,3.645,1.621Z" transform="translate(-2.381 -9.269)"/>
          <path id="Path_445" data-name="Path 445" class="cls-1" d="M23.145,82.876a2,2,0,0,1-2.767-.553l-2.653-3.98-16.4,32.8H42.751l-15.5-31Zm-3.312,7.213L11.852,106.05a2,2,0,0,1-3.569-1.785L16.263,88.3a2,2,0,1,1,3.569,1.785Z" transform="translate(-0.091 -11.385)"/>
          <path id="Path_446" data-name="Path 446" class="cls-1" d="M58.164,44.585a1.994,1.994,0,0,1,2.821,0l2.033,2.033,2.306-4.613-5.75-11.5-5.75,11.5,2.306,4.613Z" transform="translate(-3.71 -8.088)"/>
          <path id="Path_447" data-name="Path 447" class="cls-1" d="M111.154,38.961a1.947,1.947,0,0,0-1.42-.61H77.811a5.986,5.986,0,0,1,0-11.971H99.758a2,2,0,0,0,2-2A1.914,1.914,0,0,0,101.178,23a1.947,1.947,0,0,0-1.42-.61H65.84a5.986,5.986,0,0,1,0-11.971h3.99a1.914,1.914,0,0,0,1.385-.575,1.947,1.947,0,0,0,.61-1.42,2,2,0,0,0-2-2H2A1.914,1.914,0,0,0,.61,7,1.948,1.948,0,0,0,0,8.424a2,2,0,0,0,2,2H33.918a5.986,5.986,0,0,1,0,11.971H17.956a1.914,1.914,0,0,0-1.385.575,1.947,1.947,0,0,0-.61,1.42,2,2,0,0,0,2,2H33.918a5.986,5.986,0,0,1,0,11.971H2a2,2,0,0,0-2,2,1.914,1.914,0,0,0,.575,1.385,1.946,1.946,0,0,0,1.42.61h42.66L54.08,23.493a2.078,2.078,0,0,1,3.57,0l9.424,18.849h42.66a2,2,0,0,0,2-2A1.913,1.913,0,0,0,111.154,38.961Z" transform="translate(0 -6.428)"/>
          <path id="Path_448" data-name="Path 448" class="cls-1" d="M98.434,73.594l-2.259-4.517L92.762,75.9l2.861,1.905Z" transform="translate(-6.394 -10.746)"/>
          <path id="Path_449" data-name="Path 449" class="cls-1" d="M96.555,82.322a2,2,0,0,1-2.767.553l-4.1-2.737-15.5,31h41.427l-16.4-32.8Zm-3.866,7.766L84.709,106.05a2,2,0,1,1-3.569-1.785L89.12,88.3a2,2,0,1,1,3.569,1.785Z" transform="translate(-5.113 -11.385)"/>
        </g>
      </g>
    </g>
  </g>
</svg>
