<svg xmlns="http://www.w3.org/2000/svg" xmlns:xlink="http://www.w3.org/1999/xlink" viewBox="930 2562 60 60">
  <defs>
    <style>
      .cls-1, .cls-3 {
        fill: #110b76;
      }

      .cls-1 {
        stroke: #707070;
      }

      .cls-2 {
        clip-path: url(#clip-path);
      }
    </style>
    <clipPath id="clip-path">
      <rect id="Rectangle_12" data-name="Rectangle 12" class="cls-1" width="60" height="60" transform="translate(1678 45)"/>
    </clipPath>
  </defs>
  <g id="Mask_Group_2" data-name="Mask Group 2" class="cls-2" transform="translate(-748 2517)">
    <g id="partner-logo-equinix" transform="translate(1677.988 54.442)">
      <path id="Path_450" data-name="Path 450" class="cls-3" d="M51.993,28.983c1.342-.467,2.555-.875,3.745-1.342.163-.058.292-.42.292-.642q.018-6.563.012-13.127V10.046c1.307.455,2.544.875,3.769,1.342.117.047.187.4.187.6q.017,7.211.012,14.41c0,1.19.012,2.369-.012,3.559a.69.69,0,0,1-.338.548c-3.769,1.342-7.561,2.649-11.341,3.967a1.4,1.4,0,0,1-.292.035v-.712q0-10.851.012-21.7a.764.764,0,0,0-.607-.875c-1.108-.35-2.205-.747-3.384-1.167-.012.315-.035.548-.035.793q0,12.251.012,24.5a.72.72,0,0,1-.572.828c-3.617,1.237-7.234,2.52-10.851,3.78-.163.058-.327.093-.572.163v-.793q0-16.4.012-32.787c0-.548-.21-.723-.665-.957a3.169,3.169,0,0,0-3.045.163.786.786,0,0,0-.3.467,1.545,1.545,0,0,0-.012.467V40.126c-.245-.07-.432-.128-.6-.187-3.617-1.26-7.223-2.532-10.851-3.78a.691.691,0,0,1-.537-.793q.018-12.251.012-24.5v-.84c-.922.315-1.739.607-2.555.887-1.47.513-1.47.513-1.47,2.042v21.6c-.992-.35-1.879-.653-2.777-.968Q4.9,32.058.537,30.547A.663.663,0,0,1,.012,29.8q.018-8.926,0-17.852a.666.666,0,0,1,.525-.758c1.143-.362,2.275-.782,3.477-1.2v.77c0,5.367.012,10.735-.012,16.1a.79.79,0,0,0,.653.9c1.1.338,2.159.747,3.36,1.155v-.735c0-6.324.012-12.636-.012-18.961a.749.749,0,0,1,.618-.852C12.2,7.141,15.787,5.881,19.357,4.632c.2-.07.4-.128.653-.21v.77q0,13.617-.012,27.245c0,.513.128.758.63.91,1.108.338,2.194.758,3.407,1.178v-.747q0-15.052-.012-30.1a.819.819,0,0,1,.677-.933c1.645-.537,3.267-1.143,4.912-1.692a1.431,1.431,0,0,1,.828,0c1.645.548,3.267,1.155,4.9,1.692a.8.8,0,0,1,.677.933q-.035,15-.012,29.987v.817c.233-.058.4-.093.56-.152.513-.175,1.027-.35,1.54-.537.63-.233,1.482-.327,1.82-.782.315-.432.105-1.272.105-1.925V4.411c.7.245,1.3.455,1.9.665,3.174,1.108,6.347,2.229,9.521,3.314A.7.7,0,0,1,52,9.183q-.018,9.486-.012,18.961Z"/>
    </g>
  </g>
</svg>
